<?xml version="1.0" encoding="utf-8"?>
<!-- Generator: Adobe Illustrator 16.0.4, SVG Export Plug-In . SVG Version: 6.00 Build 0)  -->
<!DOCTYPE svg PUBLIC "-//W3C//DTD SVG 1.1//EN" "http://www.w3.org/Graphics/SVG/1.1/DTD/svg11.dtd">
<svg version="1.1" id="Layer_1" xmlns="http://www.w3.org/2000/svg" xmlns:xlink="http://www.w3.org/1999/xlink" x="0px" y="0px"
	 width="300px" height="300px" viewBox="0 0 300 300" enable-background="new 0 0 300 300" xml:space="preserve">
<path d="M14.716309,172.058594l-13.649414,0.056641L0,167.919922l39.05957-50.353516l4.830078-0.02002l0.132324,31.709961
	l25.40918-0.106445c0.428711,2.100098,0.715332,3.986816,0.863281,5.666504c0.145508,1.679688,0.224121,3.431641,0.231934,5.25
	c0.008301,1.962891-0.055664,3.851562-0.186523,5.669922c-0.133301,1.820312-0.403809,3.853516-0.814453,6.09375l-25.40918,0.105469
	l0.178223,42.629883c0.018066,4.341797,0.379883,7.839844,1.093262,10.496094c0.710449,2.658203,1.73291,4.753906,3.071289,6.287109
	c1.335449,1.537109,2.983887,2.580078,4.948242,3.128906c1.961426,0.552734,4.272461,0.822266,6.933105,0.8125
	c2.099609-0.009766,4.163086-0.191406,6.192871-0.552734c2.026367-0.355469,3.80957-0.677734,5.350586-0.966797
	c0.98877,2.65625,1.702637,5.419922,2.134766,8.287109c0.432129,2.869141,0.652832,5.423828,0.662109,7.662109
	c0.006348,1.542969-0.024414,2.835938-0.088867,3.884766c-0.067871,1.050781-0.168457,2.068359-0.302246,3.046875
	c-6.435059,1.566406-13.08252,2.365234-19.939453,2.392578c-12.741211,0.052734-22.48291-2.878906-29.227539-8.802734
	c-6.744141-5.921875-10.14502-15.603516-10.201172-29.042969L14.716309,172.058594z"/>
<path d="M152.724609,231.75293c1.691406,2.796875,3.103516,6.044922,4.240234,9.748047
	c1.134766,3.707031,1.713867,8.078125,1.734375,13.117188c-5.59082,2.265625-10.834961,3.720703-15.731445,4.371094
	c-4.899414,0.650391-10.006836,0.986328-15.326172,1.009766c-9.102051,0.037109-17.015625-1.367188-23.746582-4.207031
	c-6.731934-2.837891-12.313965-6.773438-16.744629-11.794922c-4.431152-5.021484-7.783203-10.992188-10.049805-17.914062
	c-2.269531-6.919922-3.419922-14.439453-3.454102-22.560547c-0.033203-7.980469,1.019043-15.402344,3.162109-22.272461
	c2.140625-6.867188,5.40625-12.902344,9.794922-18.101562c4.388184-5.195312,9.864258-9.28125,16.434082-12.247559
	c6.565918-2.967773,14.188477-4.469238,22.870605-4.505859c3.078125-0.012695,5.913086,0.047852,8.505859,0.174805
	c2.589844,0.129883,5.074219,0.398438,7.458984,0.808594c2.380859,0.410156,4.761719,0.961914,7.146484,1.649902
	c2.381836,0.691895,5.046875,1.590332,7.990234,2.698242c0.013672,3.220703-0.390625,6.826172-1.213867,10.818359
	s-2.139648,7.814453-3.942383,11.460938c-4.205078-1.378906-7.884766-2.308594-11.037109-2.789062
	c-3.151367-0.476562-6.758789-0.707031-10.818359-0.689453c-8.681152,0.035156-15.211914,2.898438-19.598633,8.587891
	c-4.385254,5.6875-6.556641,13.782227-6.513184,24.282227c0.047363,11.339844,2.460938,19.591797,7.243164,24.75
	c4.778809,5.160156,11.230957,7.722656,19.352051,7.689453c2.099609-0.009766,4.022461-0.050781,5.774414-0.128906
	c1.748047-0.076172,3.463867-0.257812,5.142578-0.546875c1.678711-0.287109,3.390625-0.712891,5.139648-1.28125
	C148.285156,233.313477,150.345703,232.602539,152.724609,231.75293z"/>
<path d="M164.766602,148.75293c5.036133-0.86084,10.001953-1.301758,14.904297-1.322266
	c4.899414-0.02002,9.87207,0.378906,14.915039,1.197754l0.240234,57.538574
	c0.023438,5.742188,0.496094,10.466797,1.423828,14.169922c0.923828,3.707031,2.337891,6.640625,4.236328,8.802734
	c1.899414,2.164062,4.249023,3.693359,7.053711,4.589844c2.802734,0.900391,6.095703,1.339844,9.875977,1.324219
	c5.177734-0.021484,9.516602-0.529297,13.014648-1.523438l-0.355469-85.049805
	c5.036133-0.86084,9.932617-1.30127,14.694336-1.321289c4.898438-0.02002,9.873047,0.378906,14.915039,1.197754l0.435547,104.368652
	c-4.475586,1.560547-10.381836,3.087891-17.725586,4.589844c-7.344727,1.5-15.005859,2.267578-22.986328,2.300781
	c-7.139648,0.029297-14.00293-0.501953-20.585938-1.59375c-6.585938-1.091797-12.37207-3.447266-17.355469-7.068359
	c-4.985352-3.617188-8.960938-8.919922-11.930664-15.910156c-2.969727-6.986328-4.477539-16.289062-4.526367-27.912109
	L164.766602,148.75293z"/>
<g>
</g>
<g>
</g>
<g>
</g>
<g>
</g>
<g>
</g>
<g>
</g>
<g>
</g>
<g>
</g>
<g>
</g>
<g>
</g>
<g>
</g>
<g>
</g>
<g>
</g>
<g>
</g>
<g>
</g>
</svg>
