<?xml version="1.0" encoding="utf-8"?>
<!-- Generator: Adobe Illustrator 16.0.4, SVG Export Plug-In . SVG Version: 6.00 Build 0)  -->
<!DOCTYPE svg PUBLIC "-//W3C//DTD SVG 1.1//EN" "http://www.w3.org/Graphics/SVG/1.1/DTD/svg11.dtd">
<svg version="1.1" id="Layer_1" xmlns="http://www.w3.org/2000/svg" xmlns:xlink="http://www.w3.org/1999/xlink" x="0px" y="0px"
	 width="300px" height="300px" viewBox="0 0 300 300" enable-background="new 0 0 300 300" xml:space="preserve">
<g id="Horns_1_">
	<path fill="#4D1979" d="M27.09668,147.21875c0.394531-0.652832,0.768555-1.318359,1.196289-1.949707l1.250488-1.918945
		c0.830078-1.285156,1.668945-2.569336,2.554199-3.810059c1.736328-2.513672,3.513672-4.999023,5.277832-7.498047
		c3.623047-4.915527,7.285645-9.805664,10.966797-14.685059l4.147949-5.497559l-1.712891,6.783203
		c-0.387695,1.536133-0.732422,3.136719-1.019531,4.711426c-0.284668,1.579102-0.516602,3.164551-0.631836,4.714355
		c-0.054199,0.772949-0.082031,1.539062-0.054688,2.259277c0.024902,0.708008,0.132812,1.413574,0.296875,1.808594
		c0.079102,0.189941,0.162598,0.212402,0.066406,0.123047c-0.102051-0.098145-0.285156-0.104004-0.187988-0.109863
		c0.213379-0.045898,0.823242-0.358887,1.350098-0.766113c1.106445-0.838867,2.210938-1.962891,3.255371-3.129883
		c1.048828-1.174805,2.055664-2.422852,3.043945-3.688965c1.973145-2.54248,3.837891-5.202637,5.688965-7.87793
		c3.69043-5.36377,7.208984-10.878906,10.647461-16.447266c1.721191-2.783691,3.416016-5.586426,5.100098-8.396484l5.05957-8.428711
		l13.06543-21.766602L88.898438,85.95752c-0.769531,2.475098-1.5,5.067871-2.173828,7.625488
		c-0.678711,2.567871-1.303711,5.148438-1.87793,7.734375c-1.155762,5.168457-2.050781,10.381836-2.607422,15.538574
		c-0.261719,2.575684-0.421387,5.148438-0.347168,7.635742c0.061035,2.479004,0.35791,4.919434,1.053223,6.888184
		c0.356934,0.961426,0.8125,1.765625,1.307617,2.290527c0.500488,0.527344,0.997559,0.807129,1.69043,0.972168
		c0.676758,0.179688,1.608887,0.136719,2.609863-0.058594c0.253418-0.056152,0.501465-0.091309,0.760742-0.157715l0.791504-0.241211
		c0.523926-0.128418,1.072266-0.396484,1.610352-0.589844c2.176758-0.897461,4.348145-2.198242,6.487305-3.573242
		c2.146973-1.371094,4.223145-2.956543,6.286133-4.551758c2.044434-1.638184,4.063477-3.32666,6.041016-5.083496
		c1.981934-1.75,3.92627-3.557129,5.854492-5.386719l2.870605-2.774414l2.830078-2.826172
		c1.871094-1.902832,3.743652-3.806152,5.576172-5.754883c1.858398-1.922363,3.695312-3.869141,5.519043-5.831055
		c1.835449-1.949219,3.624023-3.948242,5.439453-5.919922l11.054688-12.01123l-5.69043,15.210938
		c-0.575195,1.537598-1.148438,3.143066-1.700195,4.727539l-1.62207,4.788574
		c-1.053711,3.202637-2.057617,6.42041-2.989746,9.652832c-1.889648,6.450684-3.593262,12.973633-4.589844,19.501465
		c-0.470215,3.245605-0.793457,6.54248-0.531738,9.580566c0.140137,1.490723,0.428711,2.963867,0.985352,3.92627
		c0.55957,0.98584,1.119629,1.322754,2.25293,1.416016c1.150879,0.02002,2.604004-0.399414,3.999512-1.027832
		c1.406738-0.632812,2.814941-1.425293,4.175781-2.333008c1.373047-0.883301,2.703125-1.87793,4.025391-2.884766
		c1.308105-1.033203,2.602051-2.095215,3.888184-3.17627l6.802734-5.71875l-4.195312,7.714844
		c-0.861328,1.584961-1.700195,3.253418-2.493164,4.912109c-0.794922,1.664551-1.549805,3.348633-2.258301,5.048828
		c-0.705566,1.701172-1.366211,3.419922-1.943359,5.160156c-0.575684,1.739258-1.099121,3.493164-1.452637,5.268555
		c-0.34668,1.766602-0.569824,3.584961-0.302734,5.277344c0.143555,0.833008,0.400391,1.647461,0.904297,2.256836
		c0.480469,0.631836,1.205078,1.035156,2.028809,1.238281c0.824219,0.205078,1.730957,0.207031,2.628418,0.109375
		c0.899414-0.101562,1.803711-0.288086,2.69043-0.546875C156.067383,169.483398,157.803711,168.78125,159.5,168
		c-1.619141,0.931641-3.288086,1.793945-5.052734,2.469727c-0.878906,0.34668-1.791016,0.625-2.734375,0.819336
		c-0.941406,0.188477-1.929688,0.289062-2.941895,0.135742c-1.004883-0.138672-2.044922-0.612305-2.771484-1.422852
		c-0.752441-0.791016-1.14502-1.803711-1.391602-2.78125c-0.463379-1.984375-0.348145-3.956055-0.126953-5.865234
		c0.477539-3.829102,1.567871-7.485352,2.786133-11.068359c0.617676-1.790527,1.282715-3.561523,1.989258-5.31543
		c0.710938-1.759766,1.442871-3.480469,2.258301-5.231934l2.607422,1.996094l-1.887695,1.780762l-1.949219,1.727539
		c-1.333984,1.123047-2.680664,2.238281-4.124023,3.271484c-1.423828,1.050781-2.944336,2.020996-4.603516,2.868164
		c-1.665527,0.822266-3.496582,1.578125-5.76709,1.676758c-1.144531,0.004883-2.410645-0.210938-3.562012-0.832031
		c-1.161621-0.617188-2.023926-1.587891-2.638184-2.547363c-1.222168-1.967285-1.600098-3.930664-1.859375-5.799316
		c-0.446777-3.747559-0.186035-7.29248,0.185059-10.792969c0.402344-3.491699,0.995117-6.921875,1.69043-10.316406
		c0.696777-3.39502,1.486816-6.757324,2.359863-10.092285c0.884277-3.331543,1.839355-6.638184,2.844238-9.928223l1.55127-4.922852
		c0.533691-1.643066,1.070801-3.257324,1.65332-4.922363l5.364746,3.200195c-1.79248,2.033203-3.555664,4.089844-5.373047,6.104492
		c-1.804199,2.024902-3.622559,4.039551-5.47168,6.030762c-1.846191,1.991699-3.740723,3.944824-5.635254,5.898438
		l-2.870605,2.907715l-2.92334,2.865723c-1.96875,1.89502-3.959473,3.771973-6.005371,5.604492
		c-2.040039,1.837891-4.143555,3.624023-6.293945,5.371094c-2.187012,1.717285-4.388184,3.42334-6.773438,4.975098
		c-2.37207,1.564941-4.868652,3.01123-7.680176,4.168457c-0.728516,0.264648-1.404785,0.57666-2.189453,0.782227l-1.146484,0.333984
		c-0.393555,0.098145-0.8125,0.168457-1.218262,0.25c-1.633789,0.293945-3.458984,0.436035-5.412109-0.034668
		c-1.935547-0.428711-3.865723-1.560547-5.176758-3.026855c-1.334473-1.459961-2.141113-3.095215-2.709961-4.657715
		c-1.066406-3.14209-1.322754-6.131836-1.392578-9.029785c-0.062988-2.90332,0.138672-5.72168,0.439941-8.504395
		c0.602539-5.563965,1.733887-10.960938,3.019531-16.290527c0.651367-2.663086,1.351562-5.308594,2.106445-7.937012
		c0.756348-2.63916,1.540527-5.221191,2.428223-7.875977l5.506348,2.543945l-5.276367,8.369141
		c-1.793945,2.769043-3.599609,5.531738-5.434082,8.27832c-3.665527,5.495117-7.415527,10.943359-11.368652,16.278809
		c-1.979492,2.66748-4.05127,5.277344-6.227539,7.834473c-1.098145,1.273438-2.219238,2.533691-3.421387,3.755371
		c-1.211914,1.21875-2.465332,2.411133-4.03418,3.48877c-0.818848,0.515137-1.653809,1.082031-3.070801,1.318848
		c-0.713867,0.107422-1.764648-0.031738-2.530762-0.622559c-0.761719-0.57666-1.111328-1.293945-1.321777-1.867676
		c-0.380371-1.160645-0.40332-2.118652-0.408203-3.04834c0.007324-0.923828,0.093262-1.800293,0.210449-2.661621
		c0.236328-1.719238,0.587891-3.373535,0.988281-5.008789c0.405762-1.638184,0.852051-3.230957,1.371094-4.854004l2.43457,1.285156
		c-3.945312,4.639648-7.916016,9.26416-11.914551,13.87207c-1.942871,2.344238-3.872559,4.70166-5.843262,7.031738
		c-0.996582,1.15918-1.938477,2.350586-2.876953,3.549805l-1.41748,1.796387
		C27.981934,145.974121,27.549316,146.603516,27.09668,147.21875z"/>
</g>
<g id="Mouth_1_">
	<path fill="#4D1979" d="M7.75,183.5c-0.616211,2.953125-1.141113,5.921875-1.67334,8.880859
		c-0.506836,2.964844-0.98291,5.928711-1.384277,8.893555c-0.384277,2.966797-0.688965,5.9375-0.836914,8.878906
		c-0.026855,0.734375-0.050781,1.466797-0.047363,2.194336c0.003418,0.725586,0.01416,1.452148,0.068848,2.15918
		c0.041992,0.709961,0.116211,1.412109,0.239258,2.073242c0.104004,0.675781,0.291992,1.28418,0.491211,1.834961l-0.446777-0.671875
		c2.165527,1.799805,4.647949,3.520508,7.123535,5.078125c2.49707,1.567383,5.081055,2.992188,7.69043,4.359375
		c2.62793,1.333984,5.294434,2.591797,8.029785,3.682617l2.04834,0.822266l2.07666,0.746094
		c1.380371,0.509766,2.776855,0.966797,4.179688,1.40625c1.39209,0.474609,2.811523,0.855469,4.230957,1.236328
		c1.410645,0.414062,2.846191,0.726562,4.280762,1.041992c0.717773,0.155273,1.430664,0.333984,2.151855,0.46875l2.17041,0.376953
		l2.169434,0.376953l2.185547,0.269531c1.455566,0.186523,2.907715,0.411133,4.374512,0.494141
		c1.464844,0.094727,2.924805,0.287109,4.394043,0.303711l4.405762,0.114258l4.408203-0.125
		c0.735352-0.005859,1.46875-0.057617,2.201172-0.129883l2.200195-0.169922l2.202148-0.161133l2.190918-0.283203
		c1.458496-0.208008,2.928711-0.349609,4.379883-0.610352l4.350586-0.828125c1.460449-0.232422,2.873047-0.68457,4.319336-0.99707
		c1.433105-0.363281,2.893555-0.636719,4.30127-1.102539l4.260742-1.280273c1.433105-0.394531,2.800781-0.982422,4.206543-1.464844
		c1.393066-0.516602,2.82373-0.946289,4.195801-1.523438l4.130371-1.713867l2.067383-0.861328l2.021484-0.963867l4.066895-1.901367
		c1.372559-0.607422,2.65625-1.380859,3.991699-2.06543l3.996094-2.084961L137,215.75
		c-2.398438,1.823242-4.780762,3.692383-7.234863,5.46582c-2.51709,1.672852-5.009277,3.410156-7.606445,4.977539
		l-3.933594,2.298828l-1.979004,1.135742l-2.036621,1.026367l-4.084961,2.049805
		c-1.361328,0.6875-2.784668,1.240234-4.179199,1.861328c-1.415527,0.570312-2.792969,1.244141-4.243652,1.728516
		l-4.321777,1.546875c-1.429688,0.553711-2.920898,0.917969-4.385742,1.371094
		c-1.476074,0.414062-2.932129,0.912109-4.440918,1.206055l-4.498047,1.001953
		c-1.503418,0.318359-3.030762,0.516602-4.546875,0.780273l-2.279785,0.366211l-2.296875,0.243164
		c-1.533691,0.142578-3.0625,0.366211-4.605469,0.394531l-4.622559,0.178711l-4.62793-0.071289
		c-1.543945-0.003906-3.080566-0.185547-4.621582-0.270508c-1.542969-0.077148-3.07373-0.285156-4.605469-0.477539l-2.29541-0.30957
		l-2.277344-0.418945l-2.277344-0.419922c-0.756836-0.150391-1.504395-0.344727-2.256836-0.514648
		c-1.503906-0.347656-3.007324-0.693359-4.484863-1.141602c-1.48584-0.415039-2.970703-0.832031-4.426758-1.342773
		l-2.194824-0.730469c-0.725586-0.260742-1.438477-0.555664-2.157715-0.832031l-2.149414-0.849609l-2.117676-0.925781
		c-2.824219-1.230469-5.569336-2.631836-8.268066-4.109375c-2.695312-1.486328-5.285156-3.157227-7.8125-4.913086
		c-2.529785-1.788086-4.930176-3.621094-7.290527-5.798828L1.5,219.943359l-0.107422-0.359375
		c-0.263672-0.879883-0.436035-1.739258-0.506348-2.55957c-0.091797-0.829102-0.115723-1.632812-0.107422-2.426758
		c-0.003418-0.796875,0.041016-1.577148,0.093262-2.355469c0.052246-0.777344,0.132812-1.545898,0.21582-2.3125
		c0.351562-3.060547,0.936523-6.051758,1.606445-9.012695c0.666504-2.960938,1.428711-5.890625,2.282715-8.791016
		C5.807129,189.219727,6.752441,186.347656,7.75,183.5z"/>
</g>
<g id="Chin_1_">
	<path fill="#4D1979" d="M15.75,239c0,0,0.509277,0.261719,1.470703,0.707031c0.953125,0.459961,2.398926,1.040039,4.22168,1.754883
		c3.65918,1.408203,8.94873,3.163086,15.394531,4.676758c3.210938,0.790039,6.730469,1.464844,10.449707,2.097656
		c3.720703,0.636719,7.671875,1.114258,11.756348,1.547852c1.020508,0.114258,2.060059,0.157227,3.097656,0.257812
		c1.040527,0.081055,2.081543,0.208008,3.140625,0.248047c2.115234,0.098633,4.246094,0.264648,6.406738,0.311523
		c1.078613,0.035156,2.161621,0.071289,3.247559,0.107422c1.087402,0.005859,2.178711,0.012695,3.271484,0.019531
		c2.18457,0.055664,4.381836-0.006836,6.578125-0.058594c4.394043-0.05957,8.789551-0.316406,13.120605-0.600586
		c4.32666-0.333008,8.595215-0.673828,12.719727-1.15625c1.033203-0.107422,2.057617-0.214844,3.072266-0.321289
		c1.013184-0.130859,2.016113-0.261719,3.008789-0.389648c1.986328-0.259766,3.938965-0.46875,5.830078-0.75293
		c3.782715-0.55957,7.383789-1.027344,10.689941-1.59668c1.662109-0.256836,3.254395-0.501953,4.769531-0.735352
		c1.513672-0.258789,2.949707-0.503906,4.298828-0.735352c1.357422-0.21582,2.628418-0.417969,3.803223-0.605469
		c1.172852-0.206055,2.250488-0.394531,3.223633-0.56543c1.94873-0.34375,3.501465-0.558594,4.553223-0.730469
		c1.05957-0.150391,1.625-0.230469,1.625-0.230469s-0.510742,0.251953-1.467773,0.723633
		c-0.963867,0.452148-2.369141,1.149414-4.185547,1.96875c-0.90625,0.416992-1.912598,0.870117-3.015625,1.345703
		c-1.11377,0.446289-2.318359,0.929688-3.60498,1.445312c-1.29541,0.500977-2.67334,1.035156-4.125977,1.59668
		c-1.462891,0.536133-3.020508,1.03418-4.63916,1.59082c-1.625977,0.527344-3.310059,1.124023-5.085938,1.62207
		c-1.777832,0.500977-3.615234,1.018555-5.504883,1.550781c-1.889648,0.541992-3.869141,0.935547-5.875488,1.427734
		c-1.005371,0.237305-2.021973,0.476562-3.053711,0.692383c-1.036621,0.196289-2.08252,0.394531-3.137695,0.59375
		c-2.110352,0.407227-4.259277,0.806641-6.456055,1.095703c-2.193359,0.305664-4.406738,0.680664-6.664062,0.862305
		c-4.498535,0.501953-9.097656,0.787109-13.707031,0.900391c-2.306152,0.026367-4.611328,0.0625-6.911621-0.021484
		c-1.149414-0.023438-2.296387-0.053711-3.438965-0.105469c-1.143066-0.078125-2.282227-0.15625-3.41748-0.233398
		c-4.538086-0.297852-8.989258-0.90332-13.261719-1.639648c-4.27002-0.78125-8.362305-1.722656-12.177734-2.853516
		c-3.812988-1.138672-7.365234-2.375-10.555176-3.743164c-3.195312-1.347656-6.048828-2.746094-8.493652-4.137695
		c-2.449219-1.378906-4.509277-2.702148-6.135742-3.889648C17.31543,240.685547,15.75,239,15.75,239z"/>
</g>
<g>
	<path fill="#4D1979" d="M34.887695,148.569336c0,0-0.472168,0.771973-1.29834,2.123047
		c-0.802246,1.345703-1.94873,3.268555-3.324219,5.576172c-0.69043,1.141602-1.371582,2.423828-2.153809,3.730469
		c-0.727539,1.34375-1.561523,2.713867-2.338867,4.181641c-0.401367,0.725586-0.80957,1.463867-1.222656,2.209961
		c-0.399902,0.753906-0.804199,1.516602-1.211914,2.285156c-0.835449,1.525391-1.626465,3.104492-2.430664,4.676758
		c-0.850586,1.548828-1.54834,3.172852-2.353516,4.71582c-0.775879,1.556641-1.461426,3.125-2.194824,4.615234
		c-0.730469,1.492188-1.333984,2.978516-1.988281,4.359375c-0.661133,1.378906-1.215332,2.711914-1.755859,3.935547
		c-0.510742,1.234375-1.074219,2.338867-1.483398,3.349609c-0.404785,1.011719-0.798828,1.884766-1.115234,2.608398
		c-0.638672,1.445312-1.050781,2.266602-1.050781,2.266602s0.073242-0.904297,0.283691-2.478516
		c0.108398-0.786133,0.230469-1.746094,0.416992-2.837891c0.164551-1.097656,0.459473-2.306641,0.769531-3.633789
		c0.310059-1.326172,0.625488-2.774414,1.111328-4.256836c0.475098-1.485352,0.91748-3.080078,1.533691-4.667969
		c0.305664-0.794922,0.616699-1.604492,0.931641-2.422852c0.316895-0.818359,0.632324-1.650391,1.016602-2.458984
		c0.744629-1.626953,1.459961-3.302734,2.314941-4.90918c0.848145-1.609375,1.675781-3.229492,2.614746-4.755859
		c0.889648-1.553711,1.842285-3.037109,2.79834-4.448242c0.921875-1.432617,1.939941-2.736328,2.85791-3.996094
		c0.96875-1.228516,1.886719-2.382812,2.794434-3.40332c0.450684-0.511719,0.869629-1.010742,1.290527-1.467773
		c0.430664-0.449219,0.839355-0.875,1.223633-1.274414c0.753906-0.808594,1.480469-1.456055,2.055176-2.002441
		C34.154785,149.11377,34.887695,148.569336,34.887695,148.569336z"/>
</g>
<g>
	<path fill="#4D1979" d="M42.397949,214.46582c0,0,0.358398-0.080078,1.029785-0.229492
		c0.668945-0.132812,1.637695-0.422852,2.869629-0.731445c1.223633-0.365234,2.706055-0.78418,4.381836-1.353516
		c1.687988-0.513672,3.539062-1.270508,5.579102-1.983398c1.001465-0.414062,2.044434-0.844727,3.123535-1.291016
		c0.540039-0.21875,1.088867-0.441406,1.645996-0.667969c0.547852-0.25,1.103516-0.504883,1.66748-0.761719
		c1.124512-0.516602,2.279785-1.045898,3.460449-1.587891c1.149414-0.610352,2.342285-1.189453,3.54541-1.797852
		c0.602539-0.301758,1.209961-0.605469,1.821777-0.912109c0.595703-0.338867,1.195801-0.679688,1.799316-1.023438
		c1.203613-0.691406,2.424316-1.384766,3.668457-2.057617c1.23291-0.692383,2.420898-1.489258,3.643066-2.234375
		c1.207031-0.771484,2.453613-1.490234,3.636719-2.308594c1.187988-0.811523,2.376465-1.623047,3.560059-2.430664
		c1.170898-0.827148,2.397461-1.567383,3.496094-2.46582c2.217773-1.766602,4.533203-3.34082,6.633789-5.046875
		c2.058105-1.754883,4.098145-3.398438,6.029297-4.970703c0.973633-0.776367,1.815918-1.647461,2.702637-2.414062
		c0.876465-0.780273,1.723145-1.533203,2.536133-2.256836c1.625488-1.450195,3.152832-2.750977,4.393555-4.016602
		c1.26416-1.243164,2.399902-2.300781,3.330078-3.179688c1.864258-1.754883,2.970703-2.732422,2.970703-2.732422
		s-0.836914,1.200195-2.373535,3.257812c-0.77002,1.026367-1.699219,2.282227-2.803711,3.693359
		c-0.560059,0.698242-1.105957,1.489258-1.775391,2.237305c-0.669922,0.748047-1.374512,1.535156-2.109375,2.356445
		c-1.484863,1.630859-3.045898,3.455078-4.838867,5.242188c-1.828125,1.750977-3.752441,3.610352-5.794922,5.479492
		c-1.003418,0.955078-2.13623,1.795898-3.222656,2.71875c-1.096191,0.912109-2.218262,1.821289-3.361328,2.722656
		c-1.11377,0.938477-2.360352,1.722656-3.550781,2.59082c-1.205078,0.849609-2.415039,1.702148-3.625,2.554688
		c-1.230469,0.822266-2.527344,1.544922-3.782715,2.318359c-1.271484,0.748047-2.506348,1.545898-3.788574,2.240234
		c-1.285645,0.689453-2.574707,1.348633-3.850586,1.992188c-0.637207,0.322266-1.270508,0.642578-1.899414,0.960938
		c-0.645508,0.286133-1.286133,0.569336-1.921875,0.850586c-1.271973,0.557617-2.513672,1.125-3.74707,1.636719
		c-1.255371,0.458984-2.483887,0.908203-3.679688,1.345703c-0.59668,0.216797-1.186035,0.431641-1.766113,0.642578
		c-0.591797,0.179688-1.174316,0.356445-1.747559,0.53125c-1.148438,0.332031-2.258301,0.652344-3.32373,0.959961
		c-2.15918,0.523438-4.127441,1.010742-5.911133,1.285156c-1.762207,0.353516-3.332031,0.49707-4.60791,0.654297
		c-1.287109,0.112305-2.29541,0.171875-2.987793,0.180664C42.76416,214.486328,42.397949,214.46582,42.397949,214.46582z"/>
</g>
<g>
	<path fill="#4D1979" d="M84.794922,203.563477c0,0,0.197266-0.49707,0.652832-1.304688
		c0.22168-0.40918,0.511719-0.889648,0.861328-1.432617c0.362305-0.530273,0.753418-1.151367,1.250977-1.767578
		c0.47998-0.632812,1.010742-1.3125,1.625-1.985352c0.593262-0.693359,1.279785-1.365234,1.989258-2.06543
		c0.721191-0.686523,1.502441-1.361328,2.312988-2.025391c0.840332-0.62793,1.666992-1.304688,2.576172-1.869141
		c0.904297-0.571289,1.795898-1.161133,2.748047-1.623047c0.92334-0.507812,1.862305-0.950195,2.805664-1.305664
		c0.466797-0.18457,0.925781-0.365234,1.375-0.541992c0.464355-0.137695,0.918945-0.271484,1.361328-0.402344
		c0.885254-0.253906,1.719727-0.482422,2.522949-0.580078c0.790527-0.136719,1.51709-0.231445,2.157227-0.307617
		c0.651367-0.03125,1.220215-0.026367,1.684082-0.02832c0.928223,0.000977,1.452148,0.038086,1.452148,0.038086
		s-0.494141,0.223633-1.347168,0.549805c-0.426758,0.161133-0.939453,0.363281-1.528809,0.558594
		c-0.575195,0.260742-1.217285,0.555664-1.920898,0.838867c-0.709473,0.266602-1.436523,0.666992-2.215332,1.041992
		c-0.388672,0.185547-0.787598,0.375977-1.195801,0.570312c-0.396484,0.219727-0.801758,0.443359-1.213379,0.670898
		c-0.412109,0.22168-0.831543,0.447266-1.255859,0.675781c-0.410156,0.256836-0.828125,0.509766-1.252441,0.757812
		c-0.855469,0.483398-1.686523,1.042969-2.524414,1.589844c-0.860352,0.511719-1.643555,1.146484-2.474121,1.682617
		c-0.798828,0.587891-1.584473,1.166992-2.345215,1.726562c-0.742188,0.587891-1.491699,1.124023-2.164062,1.680664
		c-0.689453,0.539062-1.340332,1.054688-1.936523,1.541016c-1.188477,0.975586-2.190918,1.799805-2.889648,2.388672
		C85.199219,203.226562,84.794922,203.563477,84.794922,203.563477z"/>
</g>
<g>
	<path fill="#4D1979" d="M95.211914,212.285156c0,0,0.439453,0.001953,1.196777-0.029297
		c0.755859-0.018555,1.831055-0.081055,3.103027-0.173828c0.636719-0.0625,1.322754-0.115234,2.042969-0.208008
		c0.722656-0.066406,1.473633-0.209961,2.250977-0.320312c0.780273-0.098633,1.560059-0.332031,2.369629-0.462891
		c0.785645-0.225586,1.60791-0.378906,2.384277-0.666992c0.784668-0.259766,1.586914-0.479492,2.319824-0.832031
		c0.37207-0.164062,0.745117-0.316406,1.119141-0.458984c0.359375-0.170898,0.702148-0.362305,1.047852-0.539062
		c0.345703-0.177734,0.686035-0.352539,1.018555-0.523438c0.31543-0.201172,0.624023-0.397461,0.924316-0.588867
		c0.606934-0.380859,1.190918-0.734375,1.667969-1.145508c0.487793-0.395508,0.972656-0.729492,1.375488-1.058594
		c0.367676-0.360352,0.70752-0.664062,0.986328-0.919922c0.561523-0.506836,0.903809-0.793945,0.903809-0.793945
		s-0.202148,0.381836-0.594238,1.043945c-0.198242,0.329102-0.437012,0.734375-0.73291,1.188477
		c-0.320312,0.430664-0.723633,0.886719-1.165039,1.388672c-0.226074,0.245117-0.439941,0.529297-0.705078,0.772461
		c-0.274414,0.234375-0.558105,0.476562-0.850098,0.725586c-0.294922,0.249023-0.598145,0.504883-0.908203,0.766602
		c-0.329102,0.234375-0.687012,0.442383-1.041016,0.670898c-0.35791,0.220703-0.716309,0.459961-1.091797,0.676758
		c-0.38623,0.195312-0.782227,0.384766-1.185547,0.566406c-0.79248,0.401367-1.647949,0.670898-2.494629,0.96875
		c-0.850586,0.287109-1.73584,0.431641-2.587402,0.648438c-0.866211,0.133789-1.721191,0.265625-2.55127,0.317383
		c-0.829102,0.068359-1.632324,0.091797-2.39209,0.0625c-0.758789,0.008789-1.474609-0.073242-2.130859-0.134766
		C96.859375,212.947266,95.211914,212.285156,95.211914,212.285156z"/>
</g>
<path id="Eye" fill="#4D1979" d="M115.737305,190.546875c-1.253906-0.263672-6.165039,0.577148-6.165039,0.577148
	c-0.484375,0.155273-0.966797,0.311523-1.443359,0.46582c2.250977-0.078125,3.112305,0.242188,3.112305,0.242188
	c1.166992,0.125977,2.12793,1.166992,2.12793,1.166992c0.599609,0.441406,0.441406,1.481445,0.441406,1.481445
	c-0.457031,1.371094-1.386719,2.049805-1.386719,2.049805c-1.640625,1.544922-4.146484,2.12793-4.146484,2.12793
	c-2.900391,0.724609-4.399414,0.083984-4.399414,0.083984c-2.049805-0.816406-1.891602-1.910156-1.891602-1.910156
	c0.110352-1.087891,0.630859-1.939453,0.630859-1.939453c0.705078-1.198242,2.00293-2.005859,2.703125-2.379883
	c-2.201172,0.731445-3.793945,1.275391-3.793945,1.275391c-3.083008,1.253906-4.44043,2.978516-4.44043,2.978516l-5.949219,6.796875
	c-4.329102,3.505859-9.291992,3.52832-9.291992,3.52832c3.724609,1.705078,6.933594,0.287109,6.933594,0.287109
	c0.366211,0.163086,6.163086,0.463867,6.163086,0.463867c3.185547,0.78418,6.837891,0,6.837891,0
	c12.53125-2.40332,18.143555-9.570312,18.143555-9.570312C125.675781,190.6875,115.737305,190.546875,115.737305,190.546875z"/>
<g>
</g>
<g>
</g>
<g>
</g>
<g>
</g>
<g>
</g>
<g>
</g>
<g>
</g>
<g>
</g>
<g>
</g>
<g>
</g>
<g>
</g>
<g>
</g>
<g>
</g>
<g>
</g>
<g>
</g>
</svg>
