<?xml version="1.0" encoding="utf-8"?>
<!-- Generator: Adobe Illustrator 16.0.4, SVG Export Plug-In . SVG Version: 6.00 Build 0)  -->
<!DOCTYPE svg PUBLIC "-//W3C//DTD SVG 1.1//EN" "http://www.w3.org/Graphics/SVG/1.1/DTD/svg11.dtd">
<svg version="1.1" id="Layer_1" xmlns="http://www.w3.org/2000/svg" xmlns:xlink="http://www.w3.org/1999/xlink" x="0px" y="0px"
	 width="300px" height="300px" viewBox="0 0 300 300" enable-background="new 0 0 300 300" xml:space="preserve">
<path d="M12.349609,178.541016c0.699219-0.099609,1.366211-0.174805,2-0.224609
	c0.632812-0.049805,1.332031-0.075195,2.099609-0.075195c0.666016,0,1.316406,0.025391,1.950195,0.075195
	c0.632812,0.049805,1.333008,0.125,2.100586,0.224609l11.25,35.950195c-1.367188,0.200195-2.701172,0.299805-4,0.299805
	c-1.267578,0-2.5-0.099609-3.701172-0.299805l-2-7.200195H10.149414l-2.049805,7.200195
	c-1.200195,0.200195-2.349609,0.299805-3.450195,0.299805c-1.233398,0-2.450195-0.099609-3.649414-0.299805L12.349609,178.541016z
	 M20.349609,201.241211l-4.150391-15.099609l-4.349609,15.099609H20.349609z"/>
<path d="M35.598633,177.941406c1.200195-0.200195,2.382812-0.299805,3.549805-0.299805c1.132812,0,2.300781,0.099609,3.5,0.299805
	v26.25c0,1.033203,0.058594,1.867188,0.175781,2.5c0.116211,0.633789,0.299805,1.125,0.549805,1.474609
	c0.25,0.350586,0.575195,0.592773,0.974609,0.725586c0.400391,0.132812,0.900391,0.199219,1.5,0.199219
	c0.266602,0,0.557617-0.015625,0.875-0.049805c0.316406-0.032227,0.625-0.083008,0.924805-0.149414
	c0.367188,1.367188,0.550781,2.699219,0.550781,4c0,0.266602,0,0.507812,0,0.724609s-0.03418,0.458984-0.100586,0.724609
	c-0.533203,0.166992-1.174805,0.283203-1.924805,0.350586c-0.75,0.066406-1.442383,0.099609-2.075195,0.099609
	c-2.567383,0-4.625-0.708008-6.174805-2.125c-1.549805-1.416016-2.325195-3.724609-2.325195-6.924805V177.941406z"/>
<path d="M51.798828,177.941406c1.199219-0.200195,2.382812-0.299805,3.549805-0.299805c1.132812,0,2.299805,0.099609,3.5,0.299805
	v26.25c0,1.033203,0.057617,1.867188,0.174805,2.5c0.117188,0.633789,0.300781,1.125,0.550781,1.474609
	c0.25,0.350586,0.574219,0.592773,0.974609,0.725586s0.900391,0.199219,1.5,0.199219c0.265625,0,0.557617-0.015625,0.875-0.049805
	c0.316406-0.032227,0.625-0.083008,0.924805-0.149414c0.366211,1.367188,0.549805,2.699219,0.549805,4
	c0,0.266602,0,0.507812,0,0.724609s-0.033203,0.458984-0.099609,0.724609c-0.533203,0.166992-1.175781,0.283203-1.925781,0.350586
	c-0.75,0.066406-1.441406,0.099609-2.074219,0.099609c-2.567383,0-4.625-0.708008-6.175781-2.125
	c-1.548828-1.416016-2.324219-3.724609-2.324219-6.924805V177.941406z"/>
<path d="M86.197266,184.741211H77.24707c-0.200195-1-0.299805-2.049805-0.299805-3.150391
	c0-1.032227,0.099609-2.049805,0.299805-3.049805h25.25c0.200195,1,0.299805,2.017578,0.299805,3.049805
	c0,1.100586-0.099609,2.150391-0.299805,3.150391h-8.950195v29.75c-0.599609,0.066406-1.199219,0.125-1.799805,0.174805
	c-0.599609,0.049805-1.183594,0.075195-1.75,0.075195c-0.567383,0-1.174805-0.017578-1.825195-0.049805
	c-0.649414-0.03418-1.308594-0.100586-1.974609-0.200195V184.741211z"/>
<path d="M128.396484,207.691406c0.432617,0.933594,0.791016,1.891602,1.075195,2.875
	c0.282227,0.983398,0.491211,1.974609,0.625,2.974609c-1.733398,0.633789-3.291992,1.049805-4.674805,1.25
	c-1.383789,0.200195-2.875,0.299805-4.475586,0.299805c-2.833008,0-5.317383-0.458008-7.450195-1.375
	c-2.132812-0.916016-3.924805-2.199219-5.375-3.849609c-1.449219-1.650391-2.541992-3.607422-3.274414-5.875
	c-0.733398-2.266602-1.100586-4.732422-1.100586-7.400391c0-2.666016,0.382812-5.140625,1.150391-7.424805
	c0.766602-2.282227,1.875-4.257812,3.325195-5.924805c1.450195-1.666016,3.232422-2.966797,5.349609-3.900391
	c2.116211-0.932617,4.525391-1.399414,7.225586-1.399414c1.599609,0,3.074219,0.099609,4.424805,0.299805
	c1.349609,0.200195,2.807617,0.617188,4.375,1.25c-0.067383,1-0.267578,1.974609-0.600586,2.924805
	s-0.699219,1.90918-1.099609,2.875c-1.166992-0.399414-2.200195-0.682617-3.099609-0.849609
	c-0.900391-0.166992-1.967773-0.25-3.200195-0.25c-3.200195,0-5.65918,1.041992-7.375,3.125
	c-1.717773,2.083008-2.575195,5.174805-2.575195,9.274414c0,8.133789,3.450195,12.200195,10.349609,12.200195
	c1.233398,0,2.316406-0.083008,3.25-0.25C126.179688,208.375,127.229492,208.09082,128.396484,207.691406z"/>
<path d="M134.345703,178.541016c0.632812-0.099609,1.25-0.166016,1.850586-0.200195
	c0.600586-0.032227,1.21582-0.049805,1.850586-0.049805c0.566406,0,1.149414,0.017578,1.75,0.049805
	c0.599609,0.03418,1.21582,0.100586,1.849609,0.200195v18.650391c0,2.033203,0.074219,3.774414,0.224609,5.224609
	s0.450195,2.650391,0.900391,3.600586c0.449219,0.949219,1.082031,1.649414,1.900391,2.099609
	c0.816406,0.450195,1.875,0.674805,3.173828,0.674805c1.300781,0,2.350586-0.224609,3.150391-0.674805
	c0.800781-0.450195,1.425781-1.150391,1.875-2.099609c0.450195-0.950195,0.75-2.150391,0.900391-3.600586
	s0.224609-3.191406,0.224609-5.224609v-18.650391c0.666016-0.099609,1.300781-0.166016,1.900391-0.200195
	c0.599609-0.032227,1.183594-0.049805,1.75-0.049805c0.599609,0,1.207031,0.017578,1.824219,0.049805
	c0.617188,0.03418,1.242188,0.100586,1.875,0.200195v20.200195c0,2.433594-0.199219,4.658203-0.599609,6.674805
	c-0.400391,2.017578-1.117188,3.742188-2.150391,5.174805c-1.033203,1.433594-2.416016,2.542969-4.149414,3.325195
	c-1.733398,0.783203-3.933594,1.174805-6.600586,1.174805c-2.666016,0-4.867188-0.391602-6.599609-1.174805
	c-1.733398-0.782227-3.117188-1.891602-4.150391-3.325195c-1.033203-1.432617-1.75-3.157227-2.149414-5.174805
	c-0.399414-2.016602-0.600586-4.241211-0.600586-6.674805V178.541016z"/>
<path d="M168.146484,214.491211c-0.201172-1.232422-0.300781-2.450195-0.300781-3.650391
	c0-1.199219,0.099609-2.432617,0.300781-3.699219c1.232422-0.200195,2.449219-0.300781,3.650391-0.300781
	c1.199219,0,2.431641,0.100586,3.699219,0.300781c0.199219,1.266602,0.300781,2.483398,0.300781,3.649414
	c0,1.233398-0.101562,2.467773-0.300781,3.700195c-1.267578,0.200195-2.484375,0.299805-3.650391,0.299805
	C170.613281,214.791016,169.378906,214.691406,168.146484,214.491211z"/>
<path d="M12.349609,223.541016c0.699219-0.099609,1.366211-0.174805,2-0.224609
	c0.632812-0.049805,1.332031-0.075195,2.099609-0.075195c0.666016,0,1.316406,0.025391,1.950195,0.075195
	c0.632812,0.049805,1.333008,0.125,2.100586,0.224609l11.25,35.950195c-1.367188,0.200195-2.701172,0.299805-4,0.299805
	c-1.267578,0-2.5-0.099609-3.701172-0.299805l-2-7.200195H10.149414l-2.049805,7.200195
	c-1.200195,0.200195-2.349609,0.299805-3.450195,0.299805c-1.233398,0-2.450195-0.099609-3.649414-0.299805L12.349609,223.541016z
	 M20.349609,246.241211l-4.150391-15.099609l-4.349609,15.099609H20.349609z"/>
<path d="M35.598633,222.941406c1.200195-0.200195,2.382812-0.299805,3.549805-0.299805c1.132812,0,2.300781,0.099609,3.5,0.299805
	v26.25c0,1.033203,0.058594,1.867188,0.175781,2.5c0.116211,0.633789,0.299805,1.125,0.549805,1.474609
	c0.25,0.350586,0.575195,0.592773,0.974609,0.725586c0.400391,0.132812,0.900391,0.199219,1.5,0.199219
	c0.266602,0,0.557617-0.015625,0.875-0.049805c0.316406-0.032227,0.625-0.083008,0.924805-0.149414
	c0.367188,1.367188,0.550781,2.699219,0.550781,4c0,0.266602,0,0.507812,0,0.724609s-0.03418,0.458984-0.100586,0.724609
	c-0.533203,0.166992-1.174805,0.283203-1.924805,0.350586c-0.75,0.066406-1.442383,0.099609-2.075195,0.099609
	c-2.567383,0-4.625-0.708008-6.174805-2.125c-1.549805-1.416016-2.325195-3.724609-2.325195-6.924805V222.941406z"/>
<path d="M51.798828,222.941406c1.199219-0.200195,2.382812-0.299805,3.549805-0.299805c1.132812,0,2.299805,0.099609,3.5,0.299805
	v26.25c0,1.033203,0.057617,1.867188,0.174805,2.5c0.117188,0.633789,0.300781,1.125,0.550781,1.474609
	c0.25,0.350586,0.574219,0.592773,0.974609,0.725586s0.900391,0.199219,1.5,0.199219c0.265625,0,0.557617-0.015625,0.875-0.049805
	c0.316406-0.032227,0.625-0.083008,0.924805-0.149414c0.366211,1.367188,0.549805,2.699219,0.549805,4
	c0,0.266602,0,0.507812,0,0.724609s-0.033203,0.458984-0.099609,0.724609c-0.533203,0.166992-1.175781,0.283203-1.925781,0.350586
	c-0.75,0.066406-1.441406,0.099609-2.074219,0.099609c-2.567383,0-4.625-0.708008-6.175781-2.125
	c-1.548828-1.416016-2.324219-3.724609-2.324219-6.924805V222.941406z"/>
<path d="M79.897461,239.041016h-3.25l-0.25-1l9.349609-11.950195h1.150391v7.550781h6.049805
	c0.099609,0.5,0.166016,0.949219,0.200195,1.349609c0.032227,0.400391,0.049805,0.817383,0.049805,1.25
	c0,0.466797-0.017578,0.916992-0.049805,1.349609c-0.03418,0.433594-0.100586,0.917969-0.200195,1.450195h-6.049805v10.150391
	c0,1.033203,0.083008,1.867188,0.25,2.5c0.166016,0.633789,0.407227,1.133789,0.724609,1.5
	c0.316406,0.367188,0.708008,0.617188,1.174805,0.75c0.466797,0.133789,1.016602,0.200195,1.650391,0.200195
	c0.5,0,0.991211-0.041992,1.474609-0.125s0.908203-0.158203,1.275391-0.225586c0.232422,0.633789,0.400391,1.291992,0.5,1.975586
	s0.150391,1.291992,0.150391,1.824219c0,0.367188-0.008789,0.675781-0.025391,0.925781
	c-0.017578,0.25-0.041992,0.492188-0.075195,0.724609c-1.533203,0.366211-3.117188,0.549805-4.75,0.549805
	c-3.033203,0-5.349609-0.708008-6.950195-2.125c-1.599609-1.416016-2.399414-3.724609-2.399414-6.924805V239.041016z"/>
<path d="M98.246094,222.941406c0.566406-0.100586,1.150391-0.166992,1.75-0.200195
	c0.600586-0.033203,1.183594-0.049805,1.75-0.049805s1.150391,0.016602,1.75,0.049805
	c0.600586,0.033203,1.201172,0.099609,1.800781,0.200195v13.75c0.232422-0.299805,0.541016-0.658203,0.924805-1.075195
	c0.382812-0.416016,0.858398-0.816406,1.424805-1.200195c0.566406-0.382812,1.25-0.708008,2.050781-0.974609
	c0.798828-0.266602,1.71582-0.400391,2.75-0.400391c2.865234,0,5.041016,0.799805,6.524414,2.400391
	c1.483398,1.599609,2.225586,4.117188,2.225586,7.549805v16.549805c-0.600586,0.100586-1.201172,0.166992-1.800781,0.200195
	s-1.183594,0.049805-1.75,0.049805s-1.150391-0.016602-1.75-0.049805s-1.199219-0.099609-1.799805-0.200195v-14.649414
	c0-1.800781-0.28418-3.183594-0.850586-4.150391s-1.533203-1.450195-2.899414-1.450195c-0.567383,0-1.149414,0.083984-1.75,0.25
	c-0.600586,0.166992-1.141602,0.492188-1.625,0.975586s-0.883789,1.158203-1.200195,2.024414
	c-0.316406,0.867188-0.474609,2-0.474609,3.400391v13.599609c-0.599609,0.100586-1.200195,0.166992-1.800781,0.200195
	c-0.599609,0.033203-1.183594,0.049805-1.75,0.049805s-1.141602-0.016602-1.724609-0.049805
	c-0.583984-0.033203-1.174805-0.099609-1.775391-0.200195V222.941406z"/>
<path d="M133.296875,248.741211c0.132812,2,0.833008,3.450195,2.099609,4.349609c1.267578,0.900391,2.933594,1.350586,5,1.350586
	c1.132812,0,2.291992-0.108398,3.475586-0.325195c1.182617-0.216797,2.307617-0.525391,3.375-0.924805
	c0.366211,0.666992,0.682617,1.466797,0.950195,2.399414c0.265625,0.933594,0.416016,1.933594,0.449219,3
	c-2.599609,1-5.533203,1.5-8.798828,1.5c-2.400391,0-4.458984-0.333008-6.175781-1
	c-1.716797-0.666016-3.117188-1.59082-4.199219-2.774414c-1.083984-1.182617-1.884766-2.591797-2.400391-4.225586
	c-0.517578-1.632812-0.775391-3.416016-0.775391-5.349609c0-1.900391,0.266602-3.682617,0.800781-5.349609
	c0.532227-1.666992,1.324219-3.117188,2.375-4.350586c1.048828-1.232422,2.349609-2.208008,3.899414-2.924805
	s3.358398-1.075195,5.424805-1.075195c1.800781,0,3.400391,0.317383,4.800781,0.950195
	c1.399414,0.633789,2.59082,1.5,3.574219,2.599609c0.982422,1.100586,1.724609,2.40918,2.224609,3.925781s0.75,3.141602,0.75,4.875
	c0,0.632812-0.024414,1.257812-0.074219,1.875c-0.050781,0.617188-0.109375,1.108398-0.175781,1.474609H133.296875z
	 M143.447266,243.791016c-0.067383-1.599609-0.508789-2.891602-1.325195-3.875
	c-0.817383-0.982422-1.958008-1.474609-3.424805-1.474609c-1.667969,0-2.933594,0.466797-3.800781,1.399414
	c-0.867188,0.933594-1.382812,2.25-1.548828,3.950195H143.447266z"/>
<path d="M167.445312,239.041016h-3.25l-0.25-1l9.349609-11.950195h1.150391v7.550781h6.050781
	c0.099609,0.5,0.166016,0.949219,0.199219,1.349609s0.050781,0.817383,0.050781,1.25
	c0,0.466797-0.017578,0.916992-0.050781,1.349609c-0.033203,0.433594-0.099609,0.917969-0.199219,1.450195h-6.050781v10.150391
	c0,1.033203,0.083984,1.867188,0.25,2.5c0.166016,0.633789,0.408203,1.133789,0.724609,1.5
	c0.316406,0.367188,0.708984,0.617188,1.175781,0.75c0.466797,0.133789,1.015625,0.200195,1.650391,0.200195
	c0.5,0,0.990234-0.041992,1.474609-0.125c0.482422-0.083008,0.908203-0.158203,1.275391-0.225586
	c0.232422,0.633789,0.400391,1.291992,0.5,1.975586s0.150391,1.291992,0.150391,1.824219
	c0,0.367188-0.009766,0.675781-0.025391,0.925781c-0.017578,0.25-0.042969,0.492188-0.076172,0.724609
	c-1.533203,0.366211-3.117188,0.549805-4.75,0.549805c-3.033203,0-5.349609-0.708008-6.949219-2.125
	c-1.599609-1.416016-2.400391-3.724609-2.400391-6.924805V239.041016z"/>
<path d="M187.296875,239.041016h-3.351562c-0.099609-0.432617-0.173828-0.891602-0.224609-1.375
	c-0.048828-0.482422-0.074219-0.941406-0.074219-1.375c0-0.899414,0.099609-1.782227,0.298828-2.649414h10.300781v25.849609
	c-1.199219,0.200195-2.367188,0.299805-3.5,0.299805c-1.099609,0-2.25-0.099609-3.449219-0.299805V239.041016z
	 M186.246094,229.291016c-0.199219-1.132812-0.300781-2.25-0.300781-3.349609c0-1.066406,0.101562-2.182617,0.300781-3.350586
	c0.566406-0.099609,1.175781-0.174805,1.824219-0.224609c0.650391-0.049805,1.242188-0.075195,1.775391-0.075195
	c0.566406,0,1.183594,0.025391,1.849609,0.075195c0.667969,0.049805,1.283203,0.125,1.851562,0.224609
	c0.099609,0.567383,0.166016,1.125,0.199219,1.675781c0.033203,0.549805,0.050781,1.108398,0.050781,1.674805
	c0,0.533203-0.017578,1.083008-0.050781,1.649414c-0.033203,0.567383-0.099609,1.133789-0.199219,1.700195
	c-0.568359,0.100586-1.175781,0.166992-1.826172,0.200195s-1.257812,0.049805-1.824219,0.049805
	c-0.533203,0-1.134766-0.016602-1.800781-0.049805S186.8125,229.391602,186.246094,229.291016z"/>
<path d="M201.246094,233.641602c0.466797-0.100586,0.931641-0.175781,1.400391-0.225586
	c0.464844-0.049805,0.982422-0.075195,1.548828-0.075195s1.066406,0.025391,1.5,0.075195s0.882812,0.125,1.349609,0.225586
	c0.101562,0.166992,0.191406,0.408203,0.275391,0.724609c0.083984,0.317383,0.158203,0.650391,0.224609,1
	s0.125,0.692383,0.175781,1.025391s0.091797,0.617188,0.125,0.849609c0.265625-0.5,0.617188-1,1.050781-1.5
	c0.431641-0.5,0.949219-0.950195,1.548828-1.349609c0.599609-0.400391,1.275391-0.725586,2.025391-0.975586
	s1.591797-0.375,2.525391-0.375c4.033203,0,6.615234,1.53418,7.75,4.600586c0.666016-1.233398,1.607422-2.308594,2.824219-3.225586
	c1.216797-0.916016,2.757812-1.375,4.625-1.375c2.933594,0,5.091797,0.808594,6.474609,2.424805
	c1.382812,1.617188,2.076172,4.142578,2.076172,7.575195v16.450195c-1.201172,0.200195-2.384766,0.299805-3.550781,0.299805
	s-2.349609-0.099609-3.548828-0.299805v-14.599609c0-1.800781-0.226562-3.183594-0.675781-4.150391
	s-1.359375-1.450195-2.724609-1.450195c-0.568359,0-1.125,0.083984-1.675781,0.25
	c-0.548828,0.166992-1.048828,0.475586-1.5,0.924805c-0.449219,0.450195-0.816406,1.083984-1.099609,1.900391
	c-0.283203,0.817383-0.425781,1.875-0.425781,3.174805v13.950195c-1.199219,0.200195-2.382812,0.299805-3.548828,0.299805
	c-1.167969,0-2.349609-0.099609-3.550781-0.299805v-14.599609c0-1.800781-0.224609-3.183594-0.673828-4.150391
	c-0.451172-0.966797-1.359375-1.450195-2.726562-1.450195c-0.566406,0-1.132812,0.083984-1.699219,0.25
	c-0.566406,0.166992-1.074219,0.492188-1.525391,0.975586c-0.449219,0.483398-0.808594,1.158203-1.074219,2.024414
	c-0.267578,0.867188-0.400391,2-0.400391,3.400391v13.549805c-1.199219,0.200195-2.382812,0.299805-3.550781,0.299805
	c-1.166016,0-2.349609-0.099609-3.548828-0.299805V233.641602z"/>
<path d="M250.845703,248.741211c0.132812,2,0.832031,3.450195,2.099609,4.349609c1.265625,0.900391,2.931641,1.350586,5,1.350586
	c1.132812,0,2.291016-0.108398,3.474609-0.325195s2.308594-0.525391,3.375-0.924805
	c0.367188,0.666992,0.683594,1.466797,0.949219,2.399414c0.267578,0.933594,0.417969,1.933594,0.451172,3
	c-2.599609,1-5.533203,1.5-8.800781,1.5c-2.400391,0-4.458984-0.333008-6.173828-1
	c-1.71875-0.666016-3.117188-1.59082-4.201172-2.774414c-1.083984-1.182617-1.882812-2.591797-2.400391-4.225586
	c-0.515625-1.632812-0.773438-3.416016-0.773438-5.349609c0-1.900391,0.265625-3.682617,0.798828-5.349609
	s1.326172-3.117188,2.375-4.350586c1.050781-1.232422,2.349609-2.208008,3.900391-2.924805s3.357422-1.075195,5.425781-1.075195
	c1.798828,0,3.398438,0.317383,4.798828,0.950195c1.400391,0.633789,2.591797,1.5,3.576172,2.599609
	c0.982422,1.100586,1.724609,2.40918,2.224609,3.925781s0.75,3.141602,0.75,4.875c0,0.632812-0.025391,1.257812-0.076172,1.875
	c-0.048828,0.617188-0.107422,1.108398-0.173828,1.474609H250.845703z M260.994141,243.791016
	c-0.066406-1.599609-0.507812-2.891602-1.324219-3.875c-0.816406-0.982422-1.958984-1.474609-3.425781-1.474609
	c-1.666016,0-2.933594,0.466797-3.798828,1.399414c-0.867188,0.933594-1.384766,2.25-1.550781,3.950195H260.994141z"/>
<path d="M273.345703,259.491211c-0.201172-1.232422-0.300781-2.450195-0.300781-3.650391
	c0-1.199219,0.099609-2.432617,0.300781-3.699219c1.232422-0.200195,2.449219-0.300781,3.650391-0.300781
	c1.199219,0,2.431641,0.100586,3.699219,0.300781c0.199219,1.266602,0.300781,2.483398,0.300781,3.649414
	c0,1.233398-0.101562,2.467773-0.300781,3.700195c-1.267578,0.200195-2.484375,0.299805-3.650391,0.299805
	C275.8125,259.791016,274.578125,259.691406,273.345703,259.491211z"/>
<g>
</g>
<g>
</g>
<g>
</g>
<g>
</g>
<g>
</g>
<g>
</g>
<g>
</g>
<g>
</g>
<g>
</g>
<g>
</g>
<g>
</g>
<g>
</g>
<g>
</g>
<g>
</g>
<g>
</g>
</svg>
