<?xml version="1.0" encoding="utf-8"?>
<!-- Generator: Adobe Illustrator 16.0.4, SVG Export Plug-In . SVG Version: 6.00 Build 0)  -->
<!DOCTYPE svg PUBLIC "-//W3C//DTD SVG 1.1//EN" "http://www.w3.org/Graphics/SVG/1.1/DTD/svg11.dtd">
<svg version="1.1" id="Layer_1" xmlns="http://www.w3.org/2000/svg" xmlns:xlink="http://www.w3.org/1999/xlink" x="0px" y="0px"
	 width="300px" height="300px" viewBox="0 0 300 300" enable-background="new 0 0 300 300" xml:space="preserve">
<path fill="#4D1979" d="M45.640625,260C20.050781,260,0,242.515625,0,214.126953h13.939453
	c0,23.3125,14.705078,33.276367,31.318359,33.276367c17.1875,0,30.554688-13.536133,30.554688-31.208008
	c0-14.476562-9.740234-27.260742-23.871094-30.457031c-3.818359-0.751953-7.064453-0.94043-16.421875-1.12793v-12.408203
	l3.246094,0.188477c1.71875,0.1875,3.054688,0.1875,3.626953,0.1875c14.705078,0,24.0625-8.648438,24.0625-21.808594
	c0-12.972168-8.785156-21.996094-21.388672-21.996094c-13.748047,0-21.769531,9.023926-21.769531,24.44043H9.357422
	c0-22.748535,14.511719-37.037109,35.708984-37.037109c20.816406,0,35.519531,14.476562,35.519531,35.157227
	c0,11.467773-4.582031,19.927734-14.513672,26.696289c15.851562,7.896484,23.871094,20.680664,23.871094,37.412109
	C89.943359,240.447266,70.464844,260,45.640625,260z"/>
<path fill="#4D1979" d="M135.195312,260C107.314453,260,86.5,239.319336,86.5,211.682617
	c0-13.536133,3.246094-22.18457,16.804688-41.924805l34.947266-51.136719h16.230469L121.255859,166.9375
	c6.300781-2.820312,10.693359-3.947266,16.613281-3.947266c25.015625,0,44.876953,21.055664,44.876953,47.75293
	C182.746094,239.130859,162.695312,260,135.195312,260z M134.814453,175.585938
	c-19.287109,0-34.183594,15.416016-34.183594,35.344727c0,21.056641,14.705078,36.472656,34.564453,36.472656
	c19.287109,0,33.419922-15.228516,33.419922-36.09668C168.615234,190.625977,154.482422,175.585938,134.814453,175.585938z"/>
<path fill="#4D1979" d="M227.806641,260c-29.599609,0-48.314453-16.168945-48.314453-53.017578v-39.480469
	c0-34.780762,18.333984-51.325195,47.167969-51.325195c27.691406,0,47.359375,15.79248,47.359375,51.325195v39.480469
	C274.019531,244.583008,256.642578,260,227.806641,260z M260.080078,170.698242c0-24.816895-7.447266-41.924805-33.228516-41.924805
	c-21.005859,0-33.417969,10.903809-33.417969,41.924805v34.02832c0,32.524414,13.367188,42.676758,33.800781,42.676758
	c22.341797,0,32.845703-11.84375,32.845703-42.676758V170.698242z"/>
<g>
</g>
<g>
</g>
<g>
</g>
<g>
</g>
<g>
</g>
<g>
</g>
<g>
</g>
<g>
</g>
<g>
</g>
<g>
</g>
<g>
</g>
<g>
</g>
<g>
</g>
<g>
</g>
<g>
</g>
</svg>
