<?xml version="1.0" encoding="utf-8"?>
<!-- Generator: Adobe Illustrator 16.0.4, SVG Export Plug-In . SVG Version: 6.00 Build 0)  -->
<!DOCTYPE svg PUBLIC "-//W3C//DTD SVG 1.1//EN" "http://www.w3.org/Graphics/SVG/1.1/DTD/svg11.dtd">
<svg version="1.1" xmlns="http://www.w3.org/2000/svg" xmlns:xlink="http://www.w3.org/1999/xlink" x="0px" y="0px"
	 width="159.25px" height="199.75px" viewBox="0 0 159.25 199.75" enable-background="new 0 0 159.25 199.75" xml:space="preserve">
<g id="Guides">
</g>
<g id="HORNED_FROG">
	<g id="Horns_1_">
		<path fill="#231F20" d="M26.847,86.969c0.395-0.653,0.769-1.318,1.196-1.95l1.25-1.919c0.83-1.285,1.669-2.569,2.554-3.81
			c1.736-2.514,3.514-4.999,5.278-7.498c3.623-4.916,7.286-9.806,10.967-14.685l4.148-5.498l-1.713,6.783
			c-0.388,1.536-0.732,3.137-1.02,4.711c-0.285,1.579-0.517,3.165-0.632,4.714c-0.054,0.773-0.082,1.539-0.055,2.259
			c0.025,0.708,0.133,1.414,0.297,1.809c0.079,0.19,0.163,0.212,0.066,0.123c-0.102-0.098-0.285-0.104-0.188-0.11
			c0.213-0.046,0.823-0.359,1.35-0.766c1.106-0.839,2.211-1.963,3.255-3.13c1.049-1.175,2.056-2.423,3.044-3.689
			c1.973-2.542,3.838-5.203,5.689-7.878c3.69-5.364,7.209-10.879,10.647-16.447c1.721-2.784,3.416-5.586,5.1-8.396l5.06-8.429
			L96.208,1.397l-7.559,24.31c-0.77,2.475-1.5,5.068-2.174,7.625c-0.679,2.568-1.304,5.148-1.878,7.734
			c-1.156,5.168-2.051,10.382-2.607,15.539c-0.262,2.576-0.421,5.148-0.347,7.636c0.061,2.479,0.358,4.919,1.053,6.889
			c0.357,0.961,0.812,1.765,1.308,2.29c0.5,0.527,0.998,0.807,1.69,0.972c0.677,0.18,1.609,0.137,2.61-0.059
			c0.253-0.056,0.501-0.091,0.761-0.158l0.792-0.241c0.524-0.128,1.072-0.396,1.61-0.59c2.177-0.897,4.348-2.198,6.487-3.573
			c2.147-1.371,4.223-2.957,6.286-4.552c2.044-1.638,4.063-3.327,6.041-5.083c1.982-1.75,3.926-3.557,5.854-5.387l2.871-2.774
			l2.83-2.826c1.871-1.903,3.744-3.806,5.576-5.755c1.858-1.922,3.695-3.869,5.519-5.831c1.835-1.949,3.624-3.948,5.439-5.92
			l11.055-12.011l-5.69,15.211c-0.575,1.538-1.148,3.143-1.7,4.728l-1.622,4.789c-1.054,3.203-2.058,6.42-2.99,9.653
			c-1.89,6.451-3.593,12.974-4.59,19.501c-0.47,3.246-0.793,6.542-0.532,9.581c0.14,1.491,0.429,2.964,0.985,3.926
			c0.56,0.986,1.12,1.323,2.253,1.416c1.151,0.02,2.604-0.399,4-1.028c1.407-0.633,2.815-1.425,4.176-2.333
			c1.373-0.883,2.703-1.878,4.025-2.885c1.308-1.033,2.602-2.095,3.888-3.176l6.803-5.719l-4.195,7.715
			c-0.862,1.585-1.7,3.253-2.493,4.912c-0.795,1.665-1.55,3.349-2.259,5.049c-0.706,1.701-1.366,3.42-1.943,5.159
			c-0.576,1.739-1.099,3.494-1.453,5.27c-0.347,1.766-0.57,3.584-0.303,5.277c0.144,0.833,0.4,1.647,0.904,2.257
			c0.48,0.631,1.205,1.035,2.029,1.238c0.824,0.206,1.731,0.208,2.628,0.109c0.899-0.101,1.804-0.287,2.69-0.547
			c1.781-0.501,3.517-1.204,5.213-1.985c-1.62,0.932-3.288,1.794-5.053,2.47c-0.879,0.346-1.791,0.625-2.734,0.819
			c-0.942,0.189-1.93,0.289-2.942,0.136c-1.005-0.139-2.045-0.613-2.771-1.423c-0.752-0.791-1.145-1.803-1.392-2.78
			c-0.463-1.985-0.348-3.957-0.127-5.866c0.478-3.83,1.568-7.485,2.786-11.068c0.618-1.791,1.283-3.562,1.989-5.315
			c0.711-1.76,1.443-3.48,2.258-5.232l2.608,1.996l-1.888,1.781l-1.949,1.728c-1.334,1.123-2.681,2.238-4.124,3.271
			c-1.424,1.051-2.944,2.021-4.604,2.868c-1.666,0.823-3.497,1.579-5.767,1.677c-1.145,0.005-2.411-0.211-3.562-0.832
			c-1.162-0.617-2.024-1.588-2.638-2.547c-1.222-1.967-1.6-3.931-1.859-5.799c-0.447-3.748-0.186-7.292,0.185-10.793
			c0.402-3.492,0.995-6.922,1.69-10.316c0.697-3.395,1.487-6.757,2.36-10.092c0.884-3.332,1.839-6.638,2.844-9.928l1.551-4.923
			c0.534-1.643,1.071-3.257,1.653-4.922l5.365,3.2c-1.792,2.033-3.556,4.09-5.373,6.104c-1.804,2.025-3.623,4.04-5.472,6.031
			c-1.846,1.992-3.741,3.945-5.635,5.898l-2.871,2.908l-2.923,2.866c-1.969,1.895-3.959,3.772-6.005,5.604
			c-2.04,1.838-4.144,3.624-6.294,5.371c-2.187,1.717-4.388,3.423-6.773,4.975c-2.372,1.565-4.869,3.011-7.68,4.168
			c-0.729,0.265-1.405,0.577-2.189,0.782l-1.146,0.334c-0.394,0.098-0.812,0.168-1.218,0.25c-1.634,0.294-3.459,0.436-5.412-0.035
			c-1.936-0.429-3.866-1.561-5.177-3.027c-1.334-1.46-2.141-3.095-2.71-4.658c-1.066-3.142-1.323-6.132-1.393-9.03
			c-0.063-2.903,0.139-5.722,0.44-8.504c0.603-5.564,1.734-10.961,3.02-16.291c0.651-2.663,1.352-5.309,2.106-7.937
			c0.756-2.639,1.541-5.221,2.428-7.876l5.506,2.544l-5.276,8.369c-1.794,2.769-3.6,5.532-5.434,8.278
			c-3.666,5.495-7.416,10.943-11.369,16.279c-1.979,2.667-4.051,5.277-6.228,7.834c-1.098,1.273-2.219,2.534-3.421,3.755
			c-1.212,1.219-2.465,2.411-4.034,3.489c-0.819,0.515-1.654,1.082-3.071,1.319c-0.714,0.107-1.765-0.032-2.531-0.623
			c-0.762-0.577-1.111-1.294-1.322-1.868c-0.38-1.161-0.403-2.119-0.408-3.048c0.007-0.924,0.093-1.8,0.21-2.662
			c0.236-1.719,0.588-3.374,0.988-5.009c0.406-1.638,0.852-3.231,1.371-4.854l2.435,1.285c-3.945,4.64-7.916,9.264-11.915,13.872
			c-1.943,2.344-3.873,4.702-5.843,7.032c-0.997,1.159-1.938,2.351-2.877,3.55l-1.417,1.796
			C27.732,85.724,27.299,86.354,26.847,86.969z"/>
	</g>
	<g id="Mouth_1_">
		<path fill="#231F20" d="M7.5,123.25c-0.616,2.953-1.141,5.922-1.673,8.881c-0.507,2.965-0.983,5.929-1.384,8.894
			c-0.384,2.967-0.689,5.938-0.837,8.879c-0.027,0.734-0.051,1.467-0.047,2.194c0.003,0.726,0.014,1.452,0.069,2.159
			c0.042,0.71,0.116,1.412,0.239,2.073c0.104,0.676,0.292,1.284,0.491,1.835l-0.447-0.672c2.166,1.8,4.648,3.521,7.124,5.078
			c2.497,1.567,5.081,2.992,7.69,4.359c2.628,1.334,5.294,2.592,8.03,3.683l2.048,0.822l2.077,0.746
			c1.38,0.51,2.777,0.967,4.18,1.406c1.392,0.475,2.812,0.855,4.231,1.236c1.411,0.414,2.846,0.727,4.281,1.042
			c0.718,0.155,1.431,0.334,2.152,0.469l2.17,0.377l2.169,0.377l2.186,0.27c1.456,0.187,2.908,0.411,4.375,0.494
			c1.465,0.095,2.925,0.287,4.394,0.304l4.406,0.114l4.408-0.125c0.735-0.006,1.469-0.058,2.201-0.13l2.2-0.17l2.202-0.161
			l2.191-0.283c1.458-0.208,2.929-0.35,4.38-0.61l4.351-0.828c1.46-0.232,2.873-0.685,4.319-0.997
			c1.433-0.363,2.894-0.637,4.301-1.103l4.261-1.28c1.433-0.395,2.801-0.982,4.207-1.465c1.393-0.517,2.824-0.946,4.196-1.523
			l4.13-1.714l2.067-0.861l2.021-0.964l4.067-1.901c1.373-0.607,2.656-1.381,3.992-2.065l3.996-2.085l7.837-4.504
			c-2.398,1.823-4.781,3.692-7.235,5.466c-2.517,1.673-5.009,3.41-7.606,4.978l-3.934,2.299l-1.979,1.136l-2.037,1.026l-4.085,2.05
			c-1.361,0.688-2.785,1.24-4.179,1.861c-1.416,0.57-2.793,1.244-4.244,1.729l-4.322,1.547c-1.43,0.554-2.921,0.918-4.386,1.371
			c-1.476,0.414-2.932,0.912-4.441,1.206l-4.498,1.002c-1.503,0.318-3.031,0.517-4.547,0.78l-2.28,0.366l-2.297,0.243
			c-1.534,0.143-3.062,0.366-4.605,0.395l-4.623,0.179l-4.628-0.071c-1.544-0.004-3.081-0.186-4.622-0.271
			c-1.543-0.077-3.074-0.285-4.605-0.478l-2.295-0.31l-2.277-0.419l-2.277-0.42c-0.757-0.15-1.504-0.345-2.257-0.515
			c-1.504-0.348-3.007-0.693-4.485-1.142c-1.486-0.415-2.971-0.832-4.427-1.343l-2.195-0.73c-0.726-0.261-1.438-0.556-2.158-0.832
			l-2.149-0.85l-2.118-0.926c-2.824-1.23-5.569-2.632-8.268-4.109c-2.695-1.486-5.285-3.157-7.812-4.913
			c-2.53-1.788-4.93-3.621-7.291-5.799l-0.339-0.313l-0.107-0.359c-0.264-0.88-0.436-1.739-0.506-2.56
			c-0.092-0.829-0.116-1.633-0.107-2.427c-0.003-0.797,0.041-1.577,0.093-2.355c0.052-0.777,0.133-1.546,0.216-2.312
			c0.352-3.061,0.937-6.052,1.606-9.013c0.667-2.961,1.429-5.891,2.283-8.791C5.557,128.97,6.502,126.098,7.5,123.25z"/>
	</g>
	<g id="Chin_1_">
		<path fill="#231F20" d="M15.5,178.75c0,0,0.509,0.262,1.471,0.707c0.953,0.46,2.399,1.04,4.222,1.755
			c3.659,1.408,8.949,3.163,15.395,4.677c3.211,0.79,6.73,1.465,10.45,2.098c3.721,0.637,7.672,1.114,11.756,1.548
			c1.021,0.114,2.06,0.157,3.098,0.258c1.041,0.081,2.082,0.208,3.141,0.248c2.115,0.099,4.246,0.265,6.407,0.312
			c1.079,0.035,2.162,0.071,3.248,0.107c1.087,0.006,2.179,0.013,3.271,0.02c2.185,0.056,4.382-0.007,6.578-0.059
			c4.394-0.06,8.79-0.316,13.121-0.601c4.327-0.333,8.595-0.674,12.72-1.156c1.033-0.107,2.058-0.215,3.072-0.321
			c1.013-0.131,2.016-0.262,3.009-0.39c1.986-0.26,3.939-0.469,5.83-0.753c3.783-0.56,7.384-1.027,10.69-1.597
			c1.662-0.257,3.254-0.502,4.77-0.735c1.514-0.259,2.95-0.504,4.299-0.735c1.357-0.216,2.628-0.418,3.803-0.605
			c1.173-0.206,2.25-0.395,3.224-0.565c1.948-0.344,3.501-0.559,4.553-0.73c1.06-0.15,1.625-0.23,1.625-0.23
			s-0.51,0.252-1.468,0.724c-0.964,0.452-2.37,1.149-4.186,1.969c-0.906,0.417-1.913,0.87-3.016,1.346
			c-1.114,0.446-2.318,0.93-3.605,1.445c-1.295,0.501-2.673,1.035-4.126,1.597c-1.463,0.536-3.021,1.034-4.639,1.591
			c-1.626,0.527-3.31,1.124-5.086,1.622c-1.778,0.501-3.615,1.019-5.505,1.551c-1.89,0.542-3.869,0.936-5.875,1.428
			c-1.005,0.237-2.022,0.477-3.054,0.692c-1.037,0.196-2.083,0.395-3.138,0.594c-2.11,0.407-4.259,0.807-6.456,1.096
			c-2.193,0.306-4.407,0.681-6.664,0.862c-4.499,0.502-9.098,0.787-13.707,0.9c-2.306,0.026-4.611,0.062-6.912-0.021
			c-1.149-0.023-2.296-0.054-3.439-0.105c-1.143-0.078-2.282-0.156-3.417-0.233c-4.538-0.298-8.989-0.903-13.262-1.64
			c-4.27-0.781-8.362-1.723-12.178-2.854c-3.813-1.139-7.365-2.375-10.555-3.743c-3.195-1.348-6.049-2.746-8.494-4.138
			c-2.449-1.379-4.509-2.702-6.136-3.89C17.065,180.436,15.5,178.75,15.5,178.75z"/>
	</g>
	<g id="Eyebrows">
		<g>
			<path fill="#231F20" d="M34.638,88.319c0,0-0.472,0.772-1.298,2.123c-0.802,1.346-1.949,3.269-3.324,5.576
				c-0.69,1.142-1.372,2.424-2.154,3.731c-0.728,1.344-1.562,2.713-2.339,4.182c-0.401,0.726-0.81,1.463-1.223,2.209
				c-0.4,0.753-0.804,1.516-1.212,2.285c-0.835,1.525-1.627,3.104-2.431,4.677c-0.851,1.549-1.548,3.173-2.354,4.716
				c-0.776,1.557-1.461,3.125-2.195,4.616c-0.73,1.492-1.334,2.978-1.988,4.359c-0.661,1.379-1.215,2.712-1.756,3.936
				c-0.511,1.234-1.074,2.339-1.483,3.35c-0.405,1.012-0.799,1.885-1.115,2.608c-0.639,1.445-1.051,2.267-1.051,2.267
				s0.073-0.904,0.284-2.479c0.108-0.786,0.23-1.746,0.417-2.838c0.165-1.098,0.459-2.307,0.77-3.634
				c0.31-1.326,0.625-2.774,1.111-4.257c0.475-1.485,0.917-3.08,1.534-4.668c0.306-0.795,0.617-1.604,0.932-2.423
				c0.317-0.818,0.632-1.65,1.017-2.458c0.745-1.627,1.46-3.303,2.315-4.909c0.848-1.609,1.676-3.23,2.615-4.756
				c0.89-1.554,1.842-3.037,2.798-4.448c0.922-1.433,1.94-2.736,2.858-3.997c0.969-1.228,1.887-2.383,2.794-3.403
				c0.451-0.512,0.87-1.011,1.291-1.468c0.431-0.449,0.839-0.874,1.224-1.274c0.754-0.808,1.48-1.456,2.055-2.002
				C33.905,88.864,34.638,88.319,34.638,88.319z"/>
		</g>
		<g>
			<path fill="#231F20" d="M42.148,154.216c0,0,0.358-0.08,1.03-0.229c0.669-0.133,1.638-0.423,2.87-0.731
				c1.224-0.365,2.706-0.784,4.382-1.354c1.688-0.514,3.539-1.271,5.579-1.983c1.001-0.414,2.044-0.845,3.124-1.291
				c0.54-0.219,1.088-0.441,1.646-0.668c0.547-0.25,1.104-0.505,1.667-0.762c1.125-0.517,2.28-1.046,3.46-1.588
				c1.149-0.61,2.342-1.189,3.545-1.798c0.603-0.302,1.21-0.605,1.822-0.912c0.596-0.339,1.196-0.68,1.799-1.023
				c1.204-0.691,2.424-1.384,3.668-2.057c1.233-0.693,2.421-1.49,3.643-2.235c1.207-0.771,2.454-1.49,3.637-2.308
				c1.188-0.812,2.376-1.623,3.56-2.432c1.171-0.826,2.397-1.567,3.496-2.466c2.218-1.767,4.533-3.341,6.633-5.046
				c2.059-1.755,4.099-3.399,6.03-4.971c0.974-0.777,1.816-1.647,2.703-2.414c0.876-0.78,1.723-1.533,2.536-2.257
				c1.625-1.45,3.153-2.75,4.394-4.017c1.264-1.243,2.4-2.301,3.33-3.18c1.864-1.754,2.971-2.732,2.971-2.732
				s-0.837,1.2-2.374,3.257c-0.77,1.027-1.699,2.282-2.804,3.694c-0.56,0.698-1.106,1.489-1.775,2.237
				c-0.67,0.749-1.375,1.536-2.109,2.357c-1.485,1.63-3.046,3.455-4.839,5.242c-1.828,1.75-3.752,3.61-5.795,5.479
				c-1.004,0.955-2.137,1.796-3.223,2.719c-1.096,0.913-2.218,1.822-3.361,2.723c-1.114,0.938-2.361,1.723-3.551,2.591
				c-1.205,0.85-2.415,1.702-3.625,2.555c-1.23,0.822-2.527,1.545-3.783,2.318c-1.271,0.748-2.506,1.546-3.789,2.24
				c-1.286,0.689-2.575,1.349-3.851,1.992c-0.637,0.322-1.271,0.643-1.9,0.961c-0.645,0.286-1.286,0.569-1.921,0.851
				c-1.272,0.558-2.514,1.126-3.747,1.637c-1.255,0.459-2.484,0.908-3.68,1.346c-0.597,0.217-1.186,0.432-1.766,0.643
				c-0.592,0.18-1.174,0.356-1.748,0.531c-1.148,0.332-2.258,0.652-3.324,0.961c-2.159,0.522-4.127,1.01-5.912,1.284
				c-1.762,0.354-3.332,0.497-4.607,0.654c-1.287,0.112-2.295,0.172-2.988,0.181C42.514,154.236,42.148,154.216,42.148,154.216z"/>
		</g>
		<g>
			<path fill="#231F20" d="M84.544,143.313c0,0,0.197-0.497,0.653-1.305c0.222-0.409,0.512-0.89,0.861-1.433
				c0.363-0.53,0.754-1.151,1.251-1.768c0.48-0.633,1.011-1.312,1.625-1.985c0.593-0.693,1.28-1.365,1.99-2.065
				c0.721-0.687,1.502-1.361,2.313-2.025c0.84-0.628,1.667-1.305,2.576-1.869c0.904-0.571,1.796-1.162,2.748-1.623
				c0.923-0.508,1.862-0.95,2.806-1.306c0.467-0.185,0.925-0.365,1.375-0.542c0.465-0.138,0.919-0.271,1.361-0.402
				c0.885-0.254,1.72-0.482,2.523-0.58c0.791-0.137,1.517-0.231,2.157-0.308c0.651-0.031,1.22-0.026,1.684-0.028
				c0.928,0.001,1.452,0.038,1.452,0.038s-0.494,0.224-1.347,0.55c-0.427,0.161-0.94,0.363-1.529,0.559
				c-0.575,0.261-1.217,0.556-1.921,0.839c-0.709,0.267-1.436,0.667-2.215,1.042c-0.389,0.186-0.788,0.376-1.196,0.57
				c-0.396,0.22-0.801,0.443-1.213,0.671c-0.412,0.222-0.832,0.447-1.256,0.676c-0.41,0.257-0.828,0.51-1.252,0.758
				c-0.855,0.483-1.687,1.043-2.524,1.59c-0.86,0.512-1.644,1.146-2.474,1.683c-0.799,0.588-1.585,1.167-2.345,1.727
				c-0.742,0.588-1.492,1.124-2.164,1.681c-0.69,0.539-1.34,1.055-1.937,1.541c-1.188,0.976-2.191,1.8-2.89,2.389
				C84.949,142.977,84.544,143.313,84.544,143.313z"/>
		</g>
		<g>
			<path fill="#231F20" d="M94.962,152.035c0,0,0.439,0.002,1.197-0.029c0.756-0.019,1.831-0.081,3.103-0.174
				c0.637-0.062,1.323-0.115,2.043-0.208c0.723-0.066,1.474-0.21,2.251-0.32c0.78-0.099,1.56-0.332,2.37-0.463
				c0.786-0.226,1.608-0.379,2.384-0.667c0.785-0.26,1.587-0.479,2.32-0.832c0.372-0.164,0.745-0.316,1.119-0.459
				c0.359-0.171,0.702-0.362,1.048-0.539c0.346-0.178,0.686-0.353,1.019-0.523c0.315-0.201,0.624-0.397,0.924-0.589
				c0.607-0.381,1.191-0.734,1.668-1.146c0.488-0.396,0.973-0.729,1.375-1.059c0.368-0.36,0.708-0.664,0.986-0.92
				c0.562-0.507,0.904-0.794,0.904-0.794s-0.202,0.382-0.594,1.044c-0.198,0.329-0.437,0.734-0.733,1.188
				c-0.32,0.431-0.724,0.887-1.165,1.389c-0.226,0.245-0.439,0.529-0.705,0.772c-0.274,0.234-0.558,0.477-0.85,0.726
				c-0.295,0.249-0.598,0.505-0.908,0.767c-0.329,0.234-0.687,0.442-1.041,0.671c-0.358,0.221-0.716,0.46-1.092,0.677
				c-0.386,0.195-0.782,0.385-1.186,0.566c-0.792,0.401-1.648,0.671-2.495,0.969c-0.851,0.287-1.736,0.432-2.587,0.648
				c-0.866,0.134-1.721,0.266-2.551,0.317c-0.829,0.068-1.632,0.092-2.392,0.062c-0.759,0.009-1.475-0.073-2.131-0.135
				C96.609,152.697,94.962,152.035,94.962,152.035z"/>
		</g>
	</g>
	<path id="Eye_2_" fill="#231F20" stroke="#231F20" stroke-miterlimit="10" d="M115.487,130.297
		c-1.254-0.264-6.165,0.577-6.165,0.577c-0.485,0.155-0.967,0.312-1.443,0.466c2.25-0.078,3.112,0.242,3.112,0.242
		c1.167,0.126,2.128,1.167,2.128,1.167c0.599,0.441,0.441,1.481,0.441,1.481c-0.457,1.371-1.387,2.05-1.387,2.05
		c-1.64,1.545-4.146,2.128-4.146,2.128c-2.901,0.725-4.399,0.084-4.399,0.084c-2.05-0.816-1.892-1.91-1.892-1.91
		c0.11-1.088,0.631-1.939,0.631-1.939c0.705-1.198,2.003-2.006,2.703-2.38c-2.201,0.731-3.794,1.275-3.794,1.275
		c-3.083,1.254-4.441,2.979-4.441,2.979l-5.949,6.797c-4.329,3.506-9.292,3.528-9.292,3.528c3.725,1.705,6.934,0.287,6.934,0.287
		c0.366,0.163,6.164,0.464,6.164,0.464c3.186,0.784,6.838,0,6.838,0c12.531-2.403,18.143-9.57,18.143-9.57
		C125.426,130.438,115.487,130.297,115.487,130.297z"/>
</g>
<g id="TEXT">
</g>
</svg>
