<?xml version="1.0" encoding="utf-8"?>
<!-- Generator: Adobe Illustrator 16.0.4, SVG Export Plug-In . SVG Version: 6.00 Build 0)  -->
<!DOCTYPE svg PUBLIC "-//W3C//DTD SVG 1.1//EN" "http://www.w3.org/Graphics/SVG/1.1/DTD/svg11.dtd">
<svg version="1.1" xmlns="http://www.w3.org/2000/svg" xmlns:xlink="http://www.w3.org/1999/xlink" x="0px" y="0px"
	 width="303.527px" height="146.863px" viewBox="0 0 303.527 146.863" enable-background="new 0 0 303.527 146.863"
	 xml:space="preserve">
<g id="Guides">
</g>
<g id="Layer_1">
	<g>
		<path d="M167.755,0.599l24.751,24.547c0.102,7.333,0,14.871,0,22.51c-7.945-0.814-15.788-1.833-23.732-2.241l-0.102-9.778
			l-11.102-11.204c-6.315-0.509-12.121-0.204-18.333-0.306c-3.871,3.769-7.436,7.13-11,11.102l-0.509,49.094l8.454,8.25
			c7.028-0.102,15.482-0.407,22.612,0.306l9.778-9.778V71.897c7.945,0.509,15.889,1.528,23.732,2.444v19.76
			c-7.741,7.741-15.583,15.38-23.936,23.63c-13.954-1.324-27.501-1.019-41.557-0.204l-22.917-23.019l-0.204-0.815l0.306-56.937
			l-0.102-11.408c8.352-8.352,16.195-16.093,24.954-24.955C143.514-0.114,153.394-0.216,167.755,0.599z"/>
		<path d="M98.697,44.6c-7.436,1.324-14.973,2.546-22.306,4.074V31.563l-0.204-0.204c-4.686,1.121-9.473,1.833-13.954,3.463
			l-0.204,70.28c4.685-1.222,9.472-2.852,14.361-3.972c0.407,9.065-0.306,16.093,0.102,25.362
			c-17.927,4.991-34.937,12.121-51.539,20.371l0.102-27.297c4.278-2.139,8.861-3.769,13.241-5.806l0.102-72.011v-0.102
			c-4.583,0.917-9.065,2.852-13.547,4.38l-0.407,0.407L24.343,64.36C15.991,67.314,8.046,71.083,0,74.75
			c-0.102-16.908,0.204-28.316,0.102-45.428C31.27,16.488,64.168,7.627,98.697,2.84l0.204,0.917L98.697,44.6z"/>
		<path d="M242.007,11.396c0.407,8.352-0.204,16.704,0,25.362l-10.593-2.546l-0.305,8.76v50.316
			c2.75,4.787,5.602,9.472,8.556,14.056c6.111,1.833,12.019,4.278,17.926,6.621l9.982-8.556l0.204-60.502l-8.963-3.157l0.102-25.566
			c15.176,4.889,30.149,10.084,44.612,16.806c-0.102,9.574-0.407,17.01-0.306,26.89c-3.667-1.833-7.435-3.565-11.204-5.093
			l-0.408,39.724l-0.102,21.899c-10.186,8.759-20.371,17.315-30.557,26.075c-11.815-5.806-24.14-10.389-36.77-14.158l-18.13-29.64
			l0.408-64.881v-4.482c-3.259-0.814-6.621-1.018-9.88-1.731l-0.306-0.917c0.306-7.537,0-16.704,0.306-23.834
			C212.062,4.877,227.136,7.933,242.007,11.396z"/>
	</g>
</g>
<g id="Foreground">
</g>
</svg>
